<svg width="232" height="54" viewBox="0 0 232 54" fill="none" xmlns="http://www.w3.org/2000/svg">
<path d="M66.7609 20.7361C68.5058 17.9497 69.7201 15.334 70.2742 13.1485C70.4157 12.6065 70.2035 12.1117 69.6729 11.7582C68.8595 11.2162 67.4388 11.122 66.8552 11.5638C66.5958 11.7641 66.5074 12.0528 66.6135 12.3709C66.6666 12.5123 66.6725 12.8539 66.6076 13.1072V13.119C65.5053 17.8436 59.3098 27.4283 54.4643 30.7567C53.8336 31.228 53.7923 31.9349 54.0693 32.3649C54.2344 32.6182 54.5291 32.8068 54.9005 32.8068C55.1127 32.8068 55.3485 32.7478 55.6079 32.6006C58.7498 30.7567 62.4164 27.0748 65.464 22.7096C67.7041 24.1705 71.0111 27.3753 72.1311 29.5549C72.2961 29.9084 72.6793 30.1205 73.1862 30.1322C73.8229 30.1499 74.6894 29.8318 75.0372 29.1897C75.273 28.7537 75.22 28.2471 74.8957 27.7758C73.7345 25.9437 69.3841 22.1971 66.7668 20.742L66.7609 20.7361Z" fill="white" fill-opacity="0.5"/>
<path d="M89.5794 22.456C89.3318 22.0436 88.9074 21.8257 88.424 21.861C86.408 21.9376 84.3094 22.0024 82.5999 22.0377C82.5646 15.269 82.6589 9.48402 82.8357 7.57534C82.8593 7.11584 82.5823 6.73882 82.0517 6.51496C81.197 6.14972 79.682 6.21452 79.1279 6.80362C78.898 7.05104 78.8567 7.37505 79.0159 7.68727C79.293 8.24102 79.3755 9.02453 79.4875 10.674C79.8412 18.2852 79.5228 35.6872 79.2163 39.8404C79.1927 40.3175 79.4108 40.7181 79.8412 40.9832C80.1595 41.1776 80.5662 41.2778 80.973 41.2778C81.3797 41.2778 81.757 41.1835 82.0812 41.0009C82.5292 40.7417 82.7709 40.3352 82.7591 39.8521C82.7119 37.3661 82.6058 30.9391 82.6058 24.4354C84.4863 24.5061 86.6851 24.6416 88.2826 24.7888C88.8013 24.8536 89.2493 24.6475 89.5264 24.2233C89.8565 23.7167 89.88 22.9744 89.5735 22.4619L89.5794 22.456Z" fill="white" fill-opacity="0.5"/>
<path d="M113.971 12.4478C114.089 14.9692 114.012 21.6437 113.818 25.9206C113.794 26.4213 114.012 26.8396 114.437 27.0988C114.979 27.4287 115.775 27.4345 116.329 27.1164C116.777 26.8572 117.013 26.439 117.001 25.9323C116.966 24.4184 116.924 22.4213 116.96 20.2593L121.57 20.4184C121.57 22.1857 121.511 24.1356 121.416 26.2092C121.375 26.7041 121.587 27.1164 122 27.3815C122.277 27.5583 122.631 27.6466 122.978 27.6466C123.309 27.6466 123.639 27.57 123.916 27.411C124.37 27.1518 124.611 26.7335 124.6 26.221C124.44 21.8381 124.564 11.8882 124.676 7.55242C124.688 7.08114 124.405 6.69823 123.869 6.48026C123.096 6.16215 121.799 6.22695 121.287 6.7807C121.057 7.02812 121.01 7.35802 121.169 7.67613C121.475 8.29469 121.605 9.15478 121.605 10.6452V17.8028L116.96 17.8676C116.96 14.6393 117.007 11.5465 117.078 9.34329C117.09 8.87201 116.812 8.49498 116.288 8.27702C115.521 7.95301 114.207 8.01192 113.671 8.56568C113.435 8.8131 113.382 9.1371 113.541 9.48467C113.847 10.0031 113.965 10.7984 113.965 12.4478H113.971Z" fill="white" fill-opacity="0.5"/>
<path d="M121.128 29.1488C117.68 29.1488 110.924 29.1075 107.464 29.0015C107.022 28.9721 106.662 29.1311 106.462 29.461C106.203 29.8852 106.25 30.5273 106.58 31.0575C106.892 31.5582 107.37 31.8233 107.883 31.7821C111.319 31.623 117.438 31.5994 120.78 31.5994C121.47 31.5994 121.724 31.8881 121.724 32.6539C121.724 34.5273 121.724 38.0147 121.606 40.8483C121.582 41.2842 121.777 41.6554 122.16 41.8969C122.443 42.0736 122.802 42.162 123.162 42.162C123.504 42.162 123.846 42.0854 124.135 41.9205C124.583 41.6731 124.83 41.2725 124.83 40.7835V32.7187C124.83 30.1738 123.757 29.137 121.122 29.137L121.128 29.1488Z" fill="white" fill-opacity="0.5"/>
<path d="M109.32 25.6495C109.922 25.5729 110.694 25.1959 110.953 24.542C111.124 24.112 111.036 23.6466 110.7 23.2342C109.48 21.7026 107.251 19.5759 104.935 18.1503C106.338 16.2769 107.352 14.5038 107.959 12.8602C108.136 12.3889 108.006 11.9294 107.599 11.5583C106.951 10.9692 105.613 10.7041 104.958 11.0222C104.681 11.1577 104.534 11.3992 104.557 11.6937C104.593 11.9765 104.557 12.2593 104.457 12.542C102.742 17.0192 97.6311 23.0928 93.0567 26.0855C92.4849 26.4684 92.4318 27.0869 92.6794 27.4993C92.8327 27.7585 93.1274 27.9588 93.4988 27.9588C93.6815 27.9588 93.8819 27.9117 94.0942 27.7997C97.1948 26.1915 100.714 23.2519 103.549 19.8999C105.536 21.302 106.845 23.2696 108.03 25.19C108.289 25.5494 108.766 25.7084 109.326 25.6377L109.32 25.6495Z" fill="white" fill-opacity="0.5"/>
<path d="M160.152 7.57194C160.175 7.10655 159.892 6.72953 159.356 6.50567C158.501 6.15221 156.998 6.21701 156.468 6.80611C156.244 7.05942 156.208 7.38343 156.367 7.6603C156.568 8.19049 156.774 8.96222 156.815 10.6647C156.974 17.9165 156.845 35.6838 156.544 39.8428C156.521 40.3141 156.739 40.7206 157.169 40.9857C157.487 41.1801 157.894 41.2802 158.301 41.2802C158.708 41.2802 159.091 41.186 159.409 41.0034C159.857 40.7442 160.099 40.3377 160.087 39.8546C159.969 35.4894 159.892 12.0668 160.164 7.57783L160.152 7.57194Z" fill="white" fill-opacity="0.5"/>
<path d="M142.332 25.4806C147.054 25.4806 150.614 22.3584 150.614 18.217C150.614 14.0757 147.131 10.8062 142.332 10.8062C137.534 10.8062 133.932 13.9932 133.932 18.217C133.932 22.4409 137.386 25.4806 142.332 25.4806ZM137.08 18.1758C137.08 15.2951 139.19 13.2863 142.214 13.2863C145.238 13.2863 147.425 15.2067 147.425 18.1758C147.425 21.1449 145.38 22.918 142.214 22.918C139.049 22.918 137.08 20.9681 137.08 18.1758Z" fill="white" fill-opacity="0.5"/>
<path d="M153.538 28.9503C149.524 30.1049 137.74 31.2654 129.688 30.5114C129.063 30.4583 128.774 30.7529 128.656 30.9355C128.397 31.3243 128.42 31.9311 128.715 32.4849C129.051 33.1034 129.617 33.4745 130.242 33.4745C130.442 33.4745 130.637 33.4745 130.837 33.4745C140.841 33.4745 149.37 32.5261 154.304 30.8648C155.1 30.5821 155.318 29.993 155.189 29.5629C155.041 29.0975 154.469 28.7028 153.55 28.9503H153.538Z" fill="white" fill-opacity="0.5"/>
<path d="M171.63 10.5976L178.763 11.9113H178.781C178.828 11.9172 178.881 11.9231 178.922 11.9231C179.506 11.9231 179.913 11.4695 180.007 11.01C180.113 10.4857 179.842 10.032 179.323 9.87888L172.314 7.87594C171.748 7.69921 171.2 7.82292 170.799 8.22351C170.416 8.60643 170.263 9.17196 170.416 9.65503C170.505 9.94368 170.782 10.4503 171.63 10.6035V10.5976Z" fill="white" fill-opacity="0.5"/>
<path d="M183.379 15.8228C183.797 15.8111 184.163 15.652 184.369 15.2985C184.635 14.8449 184.611 14.1734 184.31 13.6608C184.057 13.2308 183.65 13.0011 183.184 13.0069H183.173C178.38 13.3074 169.503 13.1365 165.47 13.0069C165.07 13.0069 164.751 13.1896 164.569 13.5312C164.315 13.9966 164.38 14.7094 164.716 15.222C164.975 15.6108 165.353 15.8287 165.771 15.8287C165.806 15.8287 165.842 15.8287 165.883 15.8287C169.962 15.4223 177.643 15.6049 183.367 15.8287L183.379 15.8228Z" fill="white" fill-opacity="0.5"/>
<path d="M181.398 22.6799C181.398 19.3927 178.504 16.9126 174.666 16.9126C170.829 16.9126 167.935 19.3927 167.935 22.6799C167.935 25.9671 170.829 28.4472 174.666 28.4472C178.504 28.4472 181.398 25.9671 181.398 22.6799ZM178.327 22.6445C178.327 24.6004 176.824 25.9612 174.666 25.9612C172.509 25.9612 170.97 24.565 170.97 22.6445C170.97 20.7241 172.527 19.2867 174.666 19.2867C176.806 19.2867 178.327 20.7005 178.327 22.6445Z" fill="white" fill-opacity="0.5"/>
<path d="M199.23 22.9983C198.982 22.5742 198.546 22.3503 198.033 22.3857C196.406 22.4505 194.349 22.4858 192.539 22.5153H192.062V18.9335C192.934 18.8628 194.001 18.8216 195.127 18.7745C196.094 18.7332 197.126 18.692 198.181 18.6272C198.976 18.5801 199.354 17.8555 199.318 17.1603C199.277 16.4357 198.806 15.7229 197.915 15.7759C196.347 15.8643 194.184 16.206 192.062 16.6832C192.062 12.6243 192.121 9.49614 192.215 7.6228C192.256 7.15152 191.985 6.75683 191.455 6.52119C190.647 6.16184 189.226 6.19718 188.672 6.78628C188.425 7.04549 188.384 7.39306 188.543 7.70528C188.767 8.29438 188.873 9.10734 188.949 10.7156C189.103 14.2266 188.949 22.4269 188.832 26.7096C188.808 27.1868 189.02 27.5874 189.439 27.8466C189.728 28.0233 190.099 28.1117 190.464 28.1117C190.83 28.1117 191.178 28.0292 191.466 27.8643C191.909 27.611 192.144 27.2045 192.127 26.7273C192.127 26.4328 192.121 26.1205 192.109 25.7789C192.103 25.4902 192.091 25.1898 192.091 24.8717C194.331 24.9188 196.483 25.0366 197.88 25.1898C198.416 25.2605 198.882 25.0661 199.165 24.6478C199.489 24.1706 199.513 23.4873 199.224 22.9865L199.23 22.9983Z" fill="white" fill-opacity="0.5"/>
<path d="M184.747 28.8066C180.284 28.8066 177.048 31.6638 177.048 35.599C177.048 39.5342 180.213 42.1733 184.747 42.1733C189.28 42.1733 192.174 39.4104 192.174 35.599C192.174 31.7875 188.979 28.8066 184.747 28.8066ZM189.067 35.5636C189.067 37.9907 187.258 39.6873 184.67 39.6873C182.082 39.6873 180.154 37.9554 180.154 35.5636C180.154 33.0305 182.011 31.2573 184.67 31.2573C187.328 31.2573 189.067 32.9893 189.067 35.5636Z" fill="white" fill-opacity="0.5"/>
<path d="M217.862 12.5217C217.207 12.5217 216.453 12.5276 215.657 12.5394C214.761 12.5512 213.806 12.5571 212.857 12.5571C209.915 12.5571 207.463 12.504 205.777 12.4098C205.258 12.3862 204.946 12.5688 204.781 12.7279C204.545 12.9518 204.421 13.2699 204.421 13.6528C204.421 14.1182 204.622 14.5894 204.958 14.9076C205.247 15.1785 205.594 15.314 205.972 15.2964C208.389 15.155 212.739 15.0784 215.61 15.0784H217.007C217.761 15.0784 217.761 15.4378 217.761 15.585C217.761 15.6793 217.738 15.8619 217.667 16.0622C215.498 21.5997 206.797 29.2934 201.993 31.7853C201.521 32.0268 201.25 32.4038 201.25 32.8162C201.25 33.423 201.781 33.9119 202.435 33.9119C202.57 33.9119 202.735 33.9119 202.942 33.8118C210.422 30.4186 219.583 21.5585 221.092 16.2566C221.233 15.7676 221.298 15.4024 221.298 15.0784C221.298 13.4761 220.013 12.5217 217.862 12.5217Z" fill="white" fill-opacity="0.5"/>
<path d="M231.296 27.0548C231.296 17.0225 231.414 9.74708 231.603 7.58508C231.62 7.3141 231.526 7.06667 231.331 6.86049C230.99 6.50114 230.347 6.28906 229.604 6.28906C228.932 6.28906 228.107 6.4599 227.806 6.94296C227.665 7.17271 227.659 7.43781 227.783 7.68523C227.995 8.17418 228.219 8.91056 228.26 10.6779C228.337 13.0637 228.378 16.5983 228.378 20.6336C228.378 28.5924 228.254 37.152 228.148 39.8678C228.148 40.8044 228.938 41.2934 229.722 41.2934C230.506 41.2934 231.337 40.7927 231.337 39.8678C231.337 39.208 231.337 38.1122 231.326 36.7102C231.314 34.2124 231.296 30.7485 231.296 27.0607V27.0548Z" fill="white" fill-opacity="0.5"/>
<path fill-rule="evenodd" clip-rule="evenodd" d="M26.8016 53.4157C27.0794 53.7273 27.4786 53.8947 27.8779 53.8947L27.8721 53.9062C28.0862 53.9062 28.306 53.8543 28.5086 53.7562C31.0661 52.4981 33.3632 50.663 35.1569 48.4354C35.18 48.4123 35.2205 48.3604 35.2205 48.3604C35.7181 47.714 36.3546 46.8542 36.9217 45.8673C36.9332 45.8443 36.9448 45.827 36.9564 45.8097L36.9564 45.8096C38.6402 42.8665 39.5312 39.502 39.5312 36.0741V36.0452C39.5312 35.9795 39.5269 35.915 39.5185 35.8519C39.4775 31.9639 38.3056 28.2225 36.152 25.0574C36.0768 24.942 35.9958 24.8208 35.9264 24.7285C34.5492 22.7664 32.8307 21.087 30.8229 19.7309C27.5595 17.5264 23.7464 16.3491 19.7829 16.3491C19.0133 16.3491 18.3769 16.9435 18.3363 17.711C18.319 18.0573 18.3074 18.4036 18.3074 18.7556C18.3074 23.8802 20.3442 28.67 24.0357 32.2249C24.9963 33.154 26.0551 33.9793 27.1834 34.6776C29.8451 36.3454 32.9175 37.3149 36.071 37.4822C36.2396 37.4907 36.4083 37.4977 36.5776 37.5027C36.3728 39.9135 35.6521 42.2556 34.4625 44.3438C34.4568 44.3611 34.4452 44.3784 34.4336 44.3958C33.9534 45.2325 33.4152 45.9712 32.9466 46.5829C32.9408 46.5887 32.9364 46.5945 32.9321 46.6003C32.9278 46.606 32.9234 46.6118 32.9176 46.6176C32.2754 47.4082 31.5637 48.1469 30.7941 48.8105C30.9098 48.1411 30.9677 47.4543 30.9677 46.7734C30.9677 45.146 30.6495 43.5647 30.0245 42.0758C29.1219 39.9233 27.6233 38.0939 25.7138 36.7839C25.0484 36.3165 24.3078 35.9125 23.5035 35.572C22.0107 34.943 20.4253 34.6256 18.7936 34.6256H8.06597C5.93665 34.6256 4.05036 33.3502 3.25186 31.3823C3.00884 30.7706 2.88155 30.1242 2.88155 29.4548V8.05622C2.88155 5.20538 5.20759 2.88546 8.06597 2.88546H31.4537C32.0266 2.88546 32.5936 2.9778 33.1375 3.1567C35.2321 3.87806 36.6382 5.84595 36.6382 8.05622V18.5074C36.6382 19.3038 37.2862 19.9501 38.0847 19.9501C38.8832 19.9501 39.5312 19.3038 39.5312 18.5074V8.05622C39.5312 4.61674 37.3383 1.55238 34.0633 0.427049C33.2127 0.144273 32.339 0 31.4537 0H8.06597C3.61061 0 -0.0115447 3.6126 2.76523e-05 8.05622V29.4548C2.76523e-05 30.4936 0.196758 31.5035 0.578646 32.4615C1.81689 35.5258 4.76206 37.511 8.07754 37.511H18.8051C20.0492 37.511 21.2527 37.7534 22.3868 38.2266C23.0001 38.4863 23.5614 38.7922 24.0706 39.15C25.5345 40.1541 26.6743 41.5507 27.3629 43.1896C27.8374 44.3207 28.0804 45.5269 28.0804 46.7676C28.0804 47.5063 27.9936 48.2392 27.82 48.949C27.577 49.9416 27.1893 50.8592 26.6628 51.6787C26.3098 52.2211 26.3677 52.931 26.8016 53.4157ZM26.0493 30.1589C23.0521 27.2677 21.351 23.43 21.2121 19.298L21.2179 19.3038C24.082 19.5462 26.8189 20.5099 29.2086 22.1258C30.9213 23.28 32.391 24.717 33.5829 26.4136C33.6167 26.4599 33.6473 26.5061 33.6884 26.568C33.7036 26.5911 33.7203 26.6163 33.7392 26.6444C35.3593 29.0278 36.3314 31.7633 36.5744 34.6199L36.2272 34.6026C33.5656 34.4583 30.9676 33.6388 28.711 32.2307C27.7505 31.6421 26.8594 30.9438 26.0493 30.1589Z" fill="white" fill-opacity="0.5"/>
</svg>
